<svg width="400" height="140" viewBox="0 0 400 140" xmlns="http://www.w3.org/2000/svg">
  <!-- Logo circle -->
  <circle cx="70" cy="70" r="55" fill="none" stroke="#16c79a" stroke-width="2.5"/>
  
  <!-- Central source (hexagon) -->
  <g id="source">
    <polygon points="30,70 38,55 58,55 66,70 58,85 38,85" 
             fill="#1a1a2e" stroke="#16c79a" stroke-width="2.8"/>
    <circle cx="48" cy="70" r="7" fill="#16c79a"/>
  </g>
  
  <!-- Destination nodes -->
  <g id="dest-top">
    <rect x="90" y="40" width="18" height="18" rx="3" 
          fill="#1a1a2e" stroke="#19d3da" stroke-width="2"/>
    <circle cx="99" cy="49" r="3.5" fill="#19d3da" opacity="0.6"/>
  </g>
  
  <g id="dest-middle">
    <circle cx="105" cy="70" r="10" 
            fill="#1a1a2e" stroke="#19d3da" stroke-width="2"/>
    <circle cx="105" cy="70" r="4" fill="#19d3da" opacity="0.6"/>
  </g>
  
  <g id="dest-bottom">
    <rect x="90" y="82" width="18" height="18" rx="3" 
          fill="#1a1a2e" stroke="#19d3da" stroke-width="2"/>
    <circle cx="99" cy="91" r="3.5" fill="#19d3da" opacity="0.6"/>
  </g>
  
  <!-- Connection lines -->
  <g id="connections" stroke="#f5f5f5" stroke-width="1.5" opacity="0.3">
    <line x1="66" y1="64" x2="90" y2="49"/>
    <line x1="66" y1="70" x2="95" y2="70"/>
    <line x1="66" y1="76" x2="90" y2="91"/>
  </g>
  
  <!-- Static data flow -->
  <g id="data-flow">
    <circle cx="76" cy="58" r="2.5" fill="#16c79a"/>
    <circle cx="80" cy="70" r="2.5" fill="#16c79a"/>
    <circle cx="76" cy="82" r="2.5" fill="#16c79a"/>
  </g>
  
  <!-- Text -->
  <text x="160" y="85" font-family="Arial, sans-serif" font-size="48" font-weight="bold" fill="#f5f5f5">outboxx</text>
  <text x="160" y="105" font-family="Arial, sans-serif" font-size="14" fill="#16c79a" letter-spacing="2">CDC SOLUTION</text>
</svg>